<?xml version="1.0" standalone="no"?>
<!DOCTYPE svg PUBLIC "-//W3C//DTD SVG 1.1//EN" "http://www.w3.org/Graphics/SVG/1.1/DTD/svg11.dtd" >
<svg xmlns="http://www.w3.org/2000/svg">
<metadata>Generated by IcoMoon</metadata>
<defs>
<font id="icomoon" horiz-adv-x="1024">
<font-face units-per-em="1024" ascent="896" descent="-128" />
<missing-glyph horiz-adv-x="1024" />
<glyph unicode="&#x20;" d="" />
<glyph unicode="&#xe602;" glyph-name="uniE602" d="M748 225h157v53h-157v-53zM853 540q22 0 37-15.5t15-37.5v-157h-183q-11 0-18.5-7.5t-7.5-18.5v-105q0-11 7.5-18.5t18.5-7.5h183v-158q0-22-15-37t-37-15h-682q-22 0-37 15t-15 37v525h734zM801 802q22 6 32 2 20-8 20-28v-184h-734z" />
<glyph unicode="&#xe60d;" glyph-name="uniE60D" d="M738 667l-18-6-5-2-12-4-4-2-2-2-6-2-8-8-2-3-2-4-2-2-2-4-2-6-2-4v-20l2-7 2-6 2-2 2-4h4v-4l8-8 6-2 2-2 6-2h25l6 2 4 2 12 4 4 2 12 4 7 2 4 2 12 4 4 2 12 4 4 2 12 5 4 2 7 2 2 2 4 2 10 10 2 4 2 2 4 12v21l-2 8-4 8-4 4-2 4-4 4-6 2-2 2-5 2-4 3-10 2h-2l-16-2-10-5-6-2-7-2-4-2-12-4-4-2-12-4zM895 424l-12-4-4-2-7-2-6-2-4-2-12-4-4-3-12-4-4-2-13-4-6-2-4-2-12-4-4-2-14-14-2-4-2-2-2-7-3-8v-16l3-6 2-6 2-4 4-4 8-9 2-2 6-2 2-2 6-2 10-2h11l6 2 4 2 12 4 4 2 12 4 10 5 6 2 5 2 12 4 4 2 18 6 4 2 12 4 5 4 4 2 2 2 2 4 4 4 4 8 2 5v26l-2 4-2 6-2 4-8 9-4 4-4 2-5 2-4 2-8 2h-18zM848 557l-12-4-4-2-6-2-7-2-4-3-12-4-4-2-18-6-4-2-6-2-7-2-4-2-12-4-4-2-2-2-4-2-10-10-2-4-2-3-2-4-2-8v-20l2-6 2-4 2-2 2-5 2-2 2-4 4-4 4-2 2-2 8-4 6-2h21l6 2 4 2 12 4 4 2 12 4 4 2 7 2 6 2 10 5 12 4 4 2 12 4 4 2 7 2 8 4v4h4l4 4 2 4 2 2 6 12v25l-2 6-6 12-4 4-4 5-4 2-2 2-6 2-3 2-10 2h-10zM1005 258l-2 6-2 5-4 8-6 6-4 2-2 2-5 2-4 2-8 2h-22l-4-2-12-4-5-2-12-4-4-2-18-6-4-2-6-2-6-3-5-2-12-4-4-2-12-4-4-4-4-2-4-4-2-4-4-4-2-6-2-4-2-9v-16l2-4 2-6 2-4 4-4 2-4 2-2 4-2 2-2 2-3 2-2 12-4h21l18 6 4 3 12 4 4 2 12 4 5 2 12 4 4 2 18 6 4 2 6 2 4 2 7 2 12 12 2 5 2 2 2 4 2 6 2 8v6zM181 673l4-12 3-4 4-12 2-4 2-7 2-6 2-4 6-18 2-4 2-6 2-7 2-4 4-12 2-4 2-6 2-4h2l4 2 6 2 7 2 4 2 18 6 2 2 2 8 2 9 8 8 4 2 7 2 4 2 12 4 4 2 12 4 4 2 12 4 4 2 7 2 12 4 4 2 12 4 4 3 12 4 4 2 7 2 6 2 4 2 18 6 4 2 12 4 5 2 12 4 4 2 12 4 4 2 12 4 4 2 7 2 6 3 6 2 4 2 12 4 4 2 12 4 4 2 7 2 6 2 4 2 12 4 4 2 18 6 4 2 7 2 6 2 4 2 12 4 4 3 12 4h17l2-2 4-2 4-5 4-8 4-12 2-4 4-12 2-4 2-6 2-3h6l10 5 7 2 6 2 4 2 6 2 4 2v4l-4 12-2 4-4 12-2 5-4 12-2 4-4 12-2 4-4 12-3 7-2 4-4 12-2 4-4 12-2 4-2 7-2 6-2 4-4 12-2 4-4 12-2 4-2 3-2 4-4 4-4 2-6 6-7 2-6 2-10 2h-2l-12-2-6-2-4-2-7-2-6-2-4-2-18-6-4-2-12-5-4-2-6-2-7-2-4-2-12-4-4-2-12-4-4-2-6-2-7-2-6-2-4-2-12-4-4-2-12-4-4-2-6-2-7-2-4-3-12-4-4-2-18-6-4-2-7-2-6-2-4-2-12-4-4-2-12-4-4-2-6-2-7-2-4-2-18-6-4-3-12-4-4-2-6-2-7-2-4-2-12-4-4-2-18-6-4-2-6-2-7-2-4-2-12-4-4-2-6-2-2-2-4-3-4-4-4-2-2-2-2-4-3-2-2-4-2-2-2-4v-4l-2-4v-12l2-11zM375 720l2 6 2 4 6 2 4 3 6 2 7 2 4 2 12 4 4 2 18 6 4 2 13 4 4 2 12 4 4 2 12 4 4 2h10l7-2 2-4 2-2v-16l-4-4-5-2-4-2-12-4-10-5-6-2-4-2-12-4-7-2-4-2-12-4-4-2-12-4-4-2-12-4-5-2h-10l-6 2-4 4-2 4v8zM970 99l-2 4-4 12-2 4-2 6-2 7-2 4-4 12-2 4-2 6-2 2h-6l-6-2-4-2-7-2-12-4-4-2-12-4-4-2-6-2-10-2q-56 0-76 41l-2 6-4 8h-4l-4-2-18-6-5-2-12-4-4-2-6-2-10-5-12-4-4-2-7-2-6-2-4-2-18-6-4-2-12-4-4-2-7-2-6-2-4-2-12-4-4-2-12-4-10-5-6-2-7-2-4-2-12-4-4-2-12-4-4-2-12-4-5-2-12-4-4-2-12-4-7-2-4-2-6-2-10-5-6-2h-10l-6 2-4 2-2 3-5 2-4 12-2 4-4 12-2 4-4 12-2 7-2 4-4 12-2 4-4 12-2 4-2 7-2 6-2 4-4 12-2 4-4 12-3 4-2 6-2 7-2 6-2 4-4 12-2 4-4 12-2 5-4 12-2 4-4 12-2 4-4 12-2 5-4 12-2 4-2 6-5 12-2 4h-6l-6-2-4-2-12-4-4-2-6-2-2-2v-4l2-6 2-4 2-6 2-7 2-4 4-12 2-4 4-12 2-4 4-13 2-6 2-4 4-12 2-4 4-12 3-4 4-13 2-4 6-18 2-4 4-12 2-7 2-6 2-4v-4l2-2 2-8 2-6 2-4 2-6 4-13 2-4 2-6 2-4 2-8 5-10 2-6 2-5 4-12 2-4 4-12 2-4 4-12 2-5 6-18 2-4 4-12 2-4 2-7 2-6 2-4 4-12 5-10 2-6 2-4 2-7 2-6 2-4 6-18 2-4 2-6 2-2 2-4h4v-5l6-6 12-6 6-2h19l6 2 4 2 12 4 4 2 6 2 7 2 4 2 12 4 10 5 6 2 4 2 18 6 5 2 12 4 4 2 12 4 4 2 12 4 4 2 7 2 6 2 4 2 18 6 4 2 6 2 10 5 7 2 6 2 4 2 12 4 4 2 12 4 4 2 6 2 7 2 6 2 4 2 12 4 4 2 12 4 4 2 12 4 5 2 12 5 4 2 18 6 4 2 12 4 5 2 12 4 4 2 12 4 4 2 12 4 9 4 4 2 4 4 4 5 2 4 4 4 2 6 2 8v20l-2 7zM702-3q-23 0-39.5 16.5t-16.5 39.5q0 15 8 28v2l3 3 1 3 4 4h1q16 16 39 16t39.5-16.5 16.5-39.5-16.5-39.5-39.5-16.5zM424-44l-2 6-2 4-4 12-2 4-4 13-2 4-4 12-5 10-2 6-2 4-2 7-4 12-2 4-4 12-2 4-4 12-2 5-4 12-2 4-4 12-2 4-4 13-2 4-4 12-2 4-4 12-5 10-4 13-2 4-4 12-2 4-4 12-2 5-4 12-2 4-6 18-2 4-2 6-2 7-2 4-4 12-2 4-2 6-5 10-2 6-2 7-2 6-2 4-4 12-2 4v6l2 6 2 2 2 5 2 2 8 4 5 2 12 4 4 2 12 4 4 2 18 6 5 2 12 4 4 2 12 4 4 2 12 4 4 2 7 3 6 2 4 2 18 6 4 2 12 4 4 2 7 2 6 2 4 2 12 4 4 2 6 2 2 2 4 2 2 2 4 2 2 2 5 4 2 3 8 8 2 4 2 2 2 4 2 6 2 2 2 6q7 22 3.5 43t-14.5 35q-24 33-83 33h-4q-5-2-14.5-5.5t-13.5-5.5l-5-2-12-4-4-2-12-4-4-2-18-6-5-2-12-4-4-2-12-4-4-2-12-4-4-3-7-2-12-4-4-2-12-4-4-2-12-4-4-2-7-2-6-2-4-2-12-4-4-2-12-4-2-2-4-2-6-2-3-2-4-2-4-3-4-2-2-2-12-6-2-2-4-2-4-4-8-4-4-4-5-2-6-6-4-2-6-6-4-2-10-10-2-3-14-14-2-4-4-4-3-2-6-6-2-4-4-4-2-4-2-2-2-3-2-4-4-4-4-8-2-2-4-8-2-2-6-12-2-2-2-7-4-8-3-2-4-12-2-4-6-18-2-7-2-4v-4l-2-6-2-8-2-12-2-13-2-26v-25l2-18v-6l2-13 4-20 2-4 2-10 2-6 2-7 2-4 6-18 3-4 2-2 2-6 4-8 2-3 2-6 2-2 2-4 2-2 2-4 2-2 2-6 6-6 4-8h4v-6l2-3 6-6 3-2 2-2 2-4 20-20 4-2 10-10 2-3 2-2 4-2 3-2 4-2 4-4 8-4 2-2 8-4 2-2 4-2 2-2 4-2 6-2 2-2 7-2 2-2 6-2 8-4 6-2 6-3 18-6 9-2 8-2 6-2h4l10-2 16-2h9l18-2h2l31 2 18 2h4l8 2 10 2h4l4 2 11 2 6 2h4l4 2 6 2 10 5 2 2v6l-2 6z" />
<glyph unicode="&#xe60e;" glyph-name="uniE60E" d="M902 347h-200q-18 0-24-18-13-39-42.5-68.5t-68.5-42.5q-18-6-18-24v-200q0-17 16-23.5t28 5.5l327 327q12 12 5.5 28t-23.5 16zM567 550q39-13 68.5-42.5t42.5-68.5q6-18 24-18h200q17 0 23.5 16t-5.5 28l-327 327q-12 12-28 5.5t-16-23.5v-200q0-18 18-24zM457 218q-39 13-68.5 42.5t-42.5 68.5q-6 18-24 18h-200q-17 0-23.5-16t5.5-28l327-327q12-12 28-5.5t16 23.5v200q0 18-18 24zM431 792l-327-327q-12-12-5.5-28t23.5-16h200q18 0 24 18 13 39 42.5 68.5t68.5 42.5q18 6 18 24v200q0 17-16 23.5t-28-5.5z" />
<glyph unicode="&#xe60f;" glyph-name="uniE60F" d="M249 641q0 43 30.5 73t73.5 30 73.5-30 30.5-73-30.5-73.5-73.5-30.5-73.5 30.5-30.5 73.5zM567 641q0 43 30.5 73t73.5 30 73.5-30 30.5-73-30.5-73.5-73.5-30.5-73.5 30.5-30.5 73.5zM810 180l-98 169h2v45h148v82h-696v-82h148v-39l-100-175-88-152 70-41 22 37 135 234 112-193h-1l1-1 24-40 23-41 23 41 24 40v1l112 193 135-234 22-37 70 41zM632 355l-120-208-117 202h1v45h236v-39z" />
<glyph unicode="&#xe61b;" glyph-name="uniE61B" horiz-adv-x="1211" d="M802 557q0 17-12 29t-29 12-28.5-12-11.5-29v-81q0-51-36-86.5t-86-35.5-86 35.5-36 86.5v81q0 17-11.5 29t-28.5 12-29-12-12-29v-81q0-84 59.5-143.5t143.5-59.5 143.5 59.5 59.5 143.5v81zM984 17q-24-27-61-27h-649q-36 0-60 27t-21 63l40 567q3 31 26 52t55 21h569q32 0 55-21t26-52l40-568q4-35-20-62z" />
<glyph unicode="&#xe61d;" glyph-name="uniE61D" d="M910-46l-169 168q74 96 74 217 0 96-48 178t-130 130-178.5 48-178.5-48-129.5-130-47.5-178.5 47.5-178.5 129.5-129.5 179-47.5q124 0 222 78l168-169q13-12 31-12t30.5 12.5 12.5 30.5-13 31zM268 148q-79 79-79 190.5t79 190.5 190.5 79 190.5-79 79-190.5-79-190.5-190.5-79-190.5 79z" />
<glyph unicode="&#xe621;" glyph-name="uniE621" d="M513 777l-395-197 395-197 394 197zM118 548v-362l379-198v369zM528-12l379 198v362l-379-191v-369z" />
<glyph unicode="&#xe633;" glyph-name="uniE633" d="M660 827q-16 6-28 9-59 16-119 16-26 0-52-3-63-7-120-31l237-237 41-40q7-5 12-10 17-14 29-31v327zM631 678v0zM924 597q-6 13-14 26-30 53-73 95-18 18-39 35-49 39-106 63v-393q1-7 2-16 2-21-2-42zM798 511v0zM948 242q4 13 8 28 16 59 16 119 0 24-3 52-7 62-30 120l-218-218-19-20-41-40q-6-8-10-12-13-16-31-29h328zM798 270l1 1v-1h-1zM715-24q14 7 26 14 53 30 95 73 18 17 35 38 39 50 63 106h-393q-7-1-16-1-20-2-42 1zM629 101v0zM364-48l28-8q59-16 119-16 26 0 52 3 63 7 120 31l-237 237-41 40-12 10q-16 14-29 31v-328zM393 102v0zM100 185q6-12 14-26 30-53 73-95 17-18 39-35 48-38 106-63v393q-2 6-2 16-2 21 2 42zM226 271v-1h-1zM76 538q-5-15-8-28-16-59-16-119 0-25 3-53 7-62 30-119l278 278q4 6 10 12 13 16 31 29h-328zM226 509v0zM307 802q-13-6-26-14-53-30-95-72-18-18-35-39-39-49-63-106h393q8 1 15 2 21 1 43-2zM393 677v0z" />
<glyph unicode="&#xe641;" glyph-name="uniE641" d="M906 330h-340v-340q0-17-16.5-35.5t-37.5-18.5-37.5 18.5-16.5 35.5v340h-340q-17 0-35.5 16.5t-18.5 37.5 18.5 37.5 35.5 16.5h340v340q0 17 16.5 35.5t37.5 18.5 37.5-18.5 16.5-35.5v-340h340q17 0 35.5-16.5t18.5-37.5-18.5-37.5-35.5-16.5z" />
<glyph unicode="&#xe64b;" glyph-name="uniE64B" d="M769 433h117v119q0 34-24 58.5t-58 24.5h-577q-34 0-58.5-24.5t-24.5-58.5v-453q0-34 24.5-58.5t58.5-24.5h577q34 0 58 24.5t24 58.5v119h-117q-30 0-51.5 21.5t-21.5 51.5v69q0 30 21.5 51.5t51.5 21.5zM816 360q11 0 20-5v40h-67q-15 0-25-10t-10-25v-69q0-15 10-25t25-10h67v40q-9-5-20-5-14 0-24.5 10t-10.5 24.5 10.5 24.5 24.5 10zM836 296q-9-5-20-5-14 0-24.5 10t-10.5 24.5 10.5 24.5 24.5 10q11 0 20-5 15-11 15-29.5t-15-29.5zM769 433h-11q-25 0-43.5-18.5t-18.5-44.5v-10q0 30 21.5 51.5t51.5 21.5zM696 291v-10q0-26 18.5-44.5t43.5-18.5h11q-30 0-51.5 21.5t-21.5 51.5zM931 291v69q0 15-10 25t-24 10h-128q-15 0-25-10t-10-25v-69q0-15 10-25t25-10h128q14 0 24 10t10 25zM583 670l-149 90q-27 15-56.5 7.5t-45.5-33.5l-38-64h289z" />
<glyph unicode="&#xe655;" glyph-name="uniE655" d="M598 148q-21-10-42-15.5t-33-5.5h-11q-6-1-32 4-15 3-34 14t-31 20l-11 10q-37 36-76 53t-67.5 15.5-52-9-35.5-16-12-9.5q-18-12-21-30-1-13 7-24t21-13q8-1 15 2 22 13 43.5 17t32.5 2l11-2q18-1 44.5-17.5t44.5-31.5l17-15q3-4 8.5-10.5t33.5-19.5 67-19q43-6 69-1t37 10.5 11 7.5l21 11q13 6 45 15t54 6q20-3 39.5-13t29.5-18l10-9q6-5 14-6 13-2 24 6.5t13 21.5q2 20-12 34-25 31-55.5 47t-54.5 19-53.5-3-44.5-12.5-34-15.5zM920 293q-7 30-24.5 49t-38 25-39.5 6.5-31.5-1.5-12.5-3q-15-4-29-11 10 42 11 78.5t-5 58-13 37.5-14 22l-6 6q-17 12-39.5 12.5t-44-9-36.5-17.5-28-18q-40-23-74-23-36 0-49 6-13 0-23-9.5t-10-23.5q0-21 20-30 17-9 62-9 37 0 73 12l1-9 5-75-63 7-81 17q-7 0-19.5 3t-44 18-55.5 38q-2 1-5.5 3.5t-14.5 7.5-21.5 8-25.5 3.5-28.5-4-28-16.5-26.5-32q-2-6-5-17.5t-0.5-41 20.5-51.5q30 13 72 18 3 0 9 0.5t25.5-3 40-12.5 50.5-31.5 59-54.5q4-3 10-8t28-13.5 46-10.5 62.5 7.5 78.5 33.5q100 47 207-43 60 30 56 92zM592 587q30-4 54.5 14.5t28.5 48.5-14 54.5-48.5 28.5-55-14.5-28.5-48.5 14.5-54.5 48.5-28.5z" />
<glyph unicode="&#xe688;" glyph-name="uniE688" d="M927 209l-18 10q-22 12-35.5 34.5t-13.5 48.5 13.5 48.5 34.5 35.5l19 9q14 8 21.5 23t4.5 31q-5 16-12 32t-14 31q-10 13-25.5 18.5t-31.5 0.5l-19-6q-54-14-93.5 25.5t-24.5 92.5l6 20q5 15-1 31t-19 25q-16 8-31 14-15 7-32 12-16 3-31-4t-22-22l-10-18q-13-22-35-35t-48.5-13-48.5 13-35 35l-10 18q-7 15-22 22t-31 4q-15-4-32-11t-31-15q-13-9-18.5-25t-1.5-31l7-20q14-53-25.5-92.5t-93.5-25.5l-19 6q-16 5-31.5-0.5t-24.5-18.5q-8-15-15-31-6-15-12-32-2-16 5-31t21-23l19-9q22-13 35-35.5t13-48.5-13-48-35-35l-19-10q-14-7-21-22t-5-31l12-32q7-17 15-32 9-13 24.5-18.5t31.5-0.5l19 6q24 7 49.5 0.5t43.5-25.5q40-39 26-93l-7-20q-4-15 1.5-31t18.5-25q16-8 31-14t32-12q16-3 31 4.5t22 21.5l10 18q13 22 35 35t48.5 13 48.5-13 35-35l10-18q7-14 22-21.5t31-4.5q16 5 32 12 17 7 31 14 13 9 19 25t1 31l-6 20q-15 54 25 93 18 19 43.5 25.5t49.5-0.5l19-6q16-5 31.5 0.5t25.5 18.5q8 17 14 31 6 15 12 33 2 16-5 31t-21 22zM510 67q-98 0-167 69t-69 166.5 69 166 166.5 68.5 166.5-68.5 69-166-69-166.5-166-69z" />
<glyph unicode="&#xe68e;" glyph-name="uniE68E" d="M730 35h-568q-43 0-70.5 25.5t-27.5 64.5v16q0 34 21.5 63.5t55.5 41.5l139 62q32 10 40 17-1 0-1.5 3t-1 7.5-2.5 7.5q0 1-8 12-75 115-75 188 0 106 62.5 181t150.5 75 150.5-75 62.5-181q0-31-14.5-68.5t-26-57.5-32.5-50q-14-22-16-25-3-12-3-23 1 1 5-0.5t11.5-5.5 11.5-5l156-61q34-12 55.5-41.5t21.5-64.5v-16q0-39-27.5-64.5t-69.5-25.5zM445 745q-65 0-111-59t-46-142q0-57 66-158 3-4 7-9.5t5-7.5q10-20 8.5-45t-13.5-39q-16-18-62-32l-139-62q-19-7-30.5-21.5t-11.5-30.5v-17q0-17 12-25t29-8h573q17 0 29 8t12 25v17q0 16-11 31t-29 21l-158 62q-35 13-51 29-24 23-8 76 3 10 23 40 63 96 63 146 0 83-46 142t-111 59zM713 483q-13 0-21 6.5t-8 19 8 19 21 6.5h216q28 0 28-25 0-13-8.5-19.5t-21.5-6.5h-214zM757 365q-13 0-21 6.5t-8 19 8 19.5 21 7h172q28 0 28-26t-29-26h-171zM811 254q-13 0-21 7t-8 19.5 8 19 21 6.5h118q29 0 29-26 0-12-8.5-19t-21.5-7h-117z" />
<glyph unicode="&#xe6be;" glyph-name="uniE6BE" d="M763 105l-169 66q-33 12-45 25-12 11-1 50 2 6 26.5 42t46 82 21.5 85q0 102-58.5 174t-141 72-141-72-58.5-174q0-29 12.5-65t26.5-61 30.5-50.5 17.5-26.5q6-14 5.5-31t-6.5-24q-5-5-18-11.5t-24-10.5l-10-3-153-68q-27-10-45-33.5t-18-51.5v-17q0-31 21.5-49t53.5-18h615q32 0 53.5 18t21.5 49v17q0 28-18 52t-45 34zM734 390q-14 0-23 7t-9 20.5 9 20.5 23 7h224q30 0 30-28 0-13-9-20t-23-7h-222zM781 262q-14 0-23 7t-9 20.5 9 21 23 7.5h177q30 0 30-28t-31-28h-176zM840 142q-14 0-23 7t-9 20.5 9 21 23 7.5h119q30 0 30-28 0-14-9-21t-23-7h-117z" />
<glyph unicode="&#xe6c2;" glyph-name="uniE6C2" d="M952 508q-33 165-168.5 254t-323.5 67q-123-14-219-76t-143.5-158.5-33.5-206.5q25-192 258-311 65-34 55-108-1-14-7.5-33t-8.5-26 1-14q6-5 46 23t68 53q11 10 21.5 18t18 13 22 12.5 20.5 10 28.5 13 31.5 14.5q62 28 94 44t79 48 78 66q117 137 83 297zM287 384q-28 0-47.5 20t-19.5 48 19.5 47.5 47.5 19.5 48-19.5 20-47.5-20-48-48-20zM512 384q-28 0-48 20t-20 48 20 47.5 48 19.5 48-19.5 20-47.5-20-48-48-20zM745 384q-28 0-48 20t-20 48 20 47.5 48 19.5 47.5-19.5 19.5-47.5-19.5-48-47.5-20z" />
<glyph unicode="&#xe6fc;" glyph-name="uniE6FC" d="M512 826q-90 0-172-35t-141-94-94-141-35-172 35-172 94-141 141-94 172-35 172 35 141 94 94 141 35 172-35 172-94 141-141 94-172 35zM672 627q33 0 56-23t23-56-23-56.5-56-23.5-56.5 23.5-23.5 56.5 23.5 56 56.5 23zM352 627q33 0 56.5-23t23.5-56-23.5-56.5-56.5-23.5-56 23.5-23 56.5 23 56 56 23zM512 78q-119 0-206.5 80.5t-98.5 197.5h610q-11-117-98.5-197.5t-206.5-80.5z" />
<glyph unicode="&#xe77c;" glyph-name="uniE77C" d="M511 893q104 0 198-40.5t162-108 108-160.5 41-194q1-105-39-200.5t-108.5-164-163-109-198.5-41.5q-103 0-197 40.5t-162.5 108.5-109 162-40.5 197q0 104 40 198.5t108.5 162.5 162.5 108.5 198 40.5zM511-61q91 0 173 35.5t141.5 95 95 141.5 35.5 173-35 173-94.5 142-142 95-173 35-173-35-142-94.5-94.5-142-36-173.5q0-119 58.5-221t161.5-162.5 225-61.5zM257 98q-18 0-27 14.5t-2 31.5q4 9 49 107 88 195 107 237 8 16 23 23 53 24 342 155 16 8 30 1.5t18-22.5q2-10-4-23-28-61-141-310-15-32-15-34-6-13-19-19-49-22-166-75t-180-82q-1 0-15-4zM701 574l-5-2q-180-82-252-115-4-1-7-7-25-56-95-209 0-1-21-46l7 2q176 80 249 114 5 2 8 7 12 27 64 140 4 9 52 116zM543 384q0-13-9.5-22.5t-23-9-22.5 9.5-9 22.5 9.5 22.5 23 9 22.5-9.5 9-22.5z" />
<glyph unicode="&#xe77d;" glyph-name="uniE77D" d="M1020 384q0-104-40.5-198t-108.5-162-162.5-108.5-198-40-197.5 41-162 108.5-108.5 162-40.5 198q1 103 41.5 197.5t108.5 162.5 162.5 108 198.5 40q103 0 197-40.5t162-109 108-162.5 40-197zM798 638q0 18-15 27t-32 2q-64-29-181-82.5t-166-75.5q-12-5-18-18-26-58-78.5-173.5t-78.5-172.5q-10-22 5-37 16-16 38-6 51 23 167.5 76t178.5 81q13 6 18 18 14 30 70.5 154.5t87.5 192.5zM321 194q1 3 3 7t3.5 7.5 2.5 5.5q78 171 107 236 3 5 7 7 74 34 253 115l4 2q-3-6-3-7-78-172-113-249-3-5-7-7-80-37-251-114zM543 384q0 13-9.5 22.5t-22.5 9.5-22-9-10-22q0-14 9.5-23.5t22.5-9.5 22.5 9.5 9.5 22.5z" />
<glyph unicode="&#xe792;" glyph-name="uniE792" d="M787 601q-5-150-92-246-3-3-42-37-2-2-9-8t-11-10q-18-17-18.5-43.5t16.5-44.5q10-10 25-15 20-6 69.5-19t85.5-24 69-22q63-21 101.5-70t40.5-118q1-17 1-35 0-15-9.5-25t-24.5-10q-14 0-24 9.5t-10 25.5q-2 50-3 54-14 76-86 101-23 8-143 44-12 3-41.5 11.5t-45.5 13.5q-74 22-87 100-12 73 43 122 6 5 16.5 13t13.5 11q63 53 86 142 9 36 9 88 0 41-8 68-19 69-79 110.5t-130 36.5q-74-6-126.5-54.5t-61.5-120.5q-16-126 48-220 21-32 62-63 63-48 57-121-6-75-70-105-8-4-60-19-8-3-73-21.5t-98-28.5q-84-26-102-99-1-4-4-53-1-3-1-7v-5q0-14-9.5-23.5t-22.5-9.5q-14-1-24 7.5t-11 22.5q-4 72 17 116 33 72 108 105 16 7 34 13t42 12 35 10q6 2 133 38 18 5 29.5 23.5t9.5 39.5q-4 29-26 46-122 89-141 241-12 93 8 151 54 163 220 190 108 18 197.5-45.5t109.5-172.5q1-3 7-70z" />
<glyph unicode="&#xe793;" glyph-name="uniE793" d="M513-127h-490q-10 0-12 10-14 62 1 110 26 89 112 130 13 6 27.5 11t34 10 28.5 8q67 20 147 42 27 7 37 20 17 20 13.5 48.5t-25.5 43.5q-96 68-129 183-27 94-11 177 32 169 198 217 74 21 148-1.5t125.5-80 63.5-133.5q26-168-68-292-9-12-48-50-4-4-27-21.5t-23-50 24-49.5q7-6 15-8 20-6 56.5-16t51.5-14q104-30 123-36 48-16 83-54 70-77 51-180l-1-7q-2-7-3-11 0-6-7-6h-495z" />
<glyph unicode="&#xe900;" glyph-name="msg" d="M511.596 827.469c207.427 0.015 387.676-141.215 432.855-343.311 34.028-152.212-2.499-288.087-107.991-403.594-70.052-76.713-157.829-122.153-260.792-135.823-92.744-12.308-181.75 2.319-265.605 44.677-7.588 3.835-12.831 3.625-19.973-1.044-39.603-25.861-83.139-39.91-130.478-42.89-17.239-1.080-34.176-0.246-51.118 2.171-16.927 2.422-29.716 14.95-32.901 31.57-3.149 16.43 4.26 33.050 19.784 40.888 31.657 15.99 53.222 41.324 69.724 71.921 3.569 6.61 3.4 11.1-1.485 17.239-53.75 67.651-84.731 144.799-93.486 230.595-20.895 204.846 103.67 398.141 298.89 464.195 46.172 15.626 93.757 23.48 142.577 23.409zM134.344-10.952c3.395-2.371 6.415-1.464 9.206-1.428 49.285 0.589 94.582 14.469 133.816 44.268 13.466 10.225 22.052 11.069 37.202 2.401 74.189-42.46 154.424-58.25 239.503-48.768 88.028 9.81 165.427 44.155 229.059 105.477 104.187 100.388 144.84 223.59 119.081 365.88-36.25 200.192-222.51 347.1-440.929 321.126-103.823-12.344-190.633-59.080-257.413-139.771-79.857-96.486-107.32-207.688-85.75-330.685 12.913-73.641 46.065-137.836 96-193.347 4.526-5.028 5.816-9.364 3.098-15.764-11.366-26.808-25.595-51.809-44.375-74.194-11.203-13.353-24.259-24.632-38.497-35.195zM701.338 312.33c-37.391 0-67.804 30.418-67.804 67.804s30.413 67.799 67.804 67.799 67.804-30.413 67.804-67.799-30.413-67.804-67.804-67.804zM701.338 407.004c-14.822 0-26.87-12.052-26.87-26.87s12.052-26.87 26.87-26.87 26.87 12.052 26.87 26.87-12.047 26.87-26.87 26.87zM512 312.33c-37.386 0-67.804 30.418-67.804 67.804s30.418 67.799 67.804 67.799c37.381 0 67.799-30.413 67.799-67.799s-30.413-67.804-67.799-67.804zM512 407.004c-14.817 0-26.875-12.052-26.875-26.87s12.052-26.87 26.875-26.87c14.812 0 26.865 12.052 26.865 26.87s-12.047 26.87-26.865 26.87zM322.668 312.33c-37.391 0-67.809 30.418-67.809 67.804s30.418 67.799 67.809 67.799c37.381 0 67.794-30.413 67.794-67.799s-30.413-67.804-67.794-67.804zM322.668 407.004c-14.822 0-26.88-12.052-26.88-26.87s12.058-26.87 26.88-26.87c14.812 0 26.865 12.052 26.865 26.87s-12.052 26.87-26.865 26.87z" />
</font>
</defs>
</svg>
